<svg version="1.1" id="Layer_1" xmlns="http://www.w3.org/2000/svg" xmlns:xlink="http://www.w3.org/1999/xlink" x="0px" y="0px"
	 width="100%" viewBox="0 0 512 512" enable-background="new 0 0 512 512" xml:space="preserve">
<path fill="#000000" opacity="1.000000" stroke="none" 
	d="
M286.369751,312.369995 
	C270.222870,328.521942 254.276627,344.375183 238.481339,360.377441 
	C235.709686,363.185425 232.884384,364.524384 228.859711,364.496582 
	C220.894577,364.441528 212.084610,362.066467 205.183685,365.408813 
	C198.504730,368.643677 193.677612,375.768677 188.145569,381.293640 
	C161.865585,407.539612 135.586136,433.786438 109.419670,460.145325 
	C106.616272,462.969330 103.774384,464.438324 99.771599,464.209106 
	C95.289436,463.952454 90.779716,464.216583 86.284309,464.131622 
	C84.543312,464.098724 82.566277,464.632751 79.784599,461.360168 
	C82.996765,458.781372 86.458687,456.456116 89.378471,453.580444 
	C103.023148,440.141724 116.525124,426.558014 130.063019,413.011047 
	C134.670593,408.400330 134.649841,408.270599 130.014603,403.560181 
	C129.547485,403.085480 129.129379,402.546112 128.604553,402.147247 
	C124.949249,399.369263 124.670387,397.163849 128.336975,393.536255 
	C157.925766,364.262238 187.549683,335.011719 216.490112,305.103088 
	C223.377625,297.985138 230.068176,294.470673 239.804443,295.561493 
	C245.890808,296.243408 252.125412,295.479401 258.275055,295.763275 
	C262.285126,295.948425 265.529266,294.924957 267.859131,291.691376 
	C273.989349,283.183228 282.152130,280.404816 292.486847,281.532043 
	C299.844116,282.334503 307.359436,281.687744 314.804230,281.687744 
	C315.065186,282.150604 315.326111,282.613495 315.587067,283.076355 
	C305.931946,292.758209 296.276825,302.440063 286.369751,312.369995 
M253.513885,329.013855 
	C265.696747,316.808258 277.879608,304.602661 290.871643,291.586395 
	C285.061279,291.372040 280.646393,289.987793 276.673218,294.006409 
	C257.692963,313.203644 238.554214,332.244110 219.506134,351.374512 
	C218.680176,352.204041 217.159088,352.822327 217.739105,354.504517 
	C223.998276,355.903229 228.900467,354.375092 233.319000,349.397064 
	C239.502380,342.430664 246.413620,336.110352 253.513885,329.013855 
z"/>
<path fill="#000000" opacity="1.000000" stroke="none" 
	d="
M175.782745,62.217331 
	C191.935181,78.367126 207.963211,94.144524 223.653961,110.250511 
	C227.584824,114.285393 231.573502,116.632118 237.184311,115.689285 
	C244.437592,114.470451 249.479767,117.545639 254.586472,122.696762 
	C300.908539,169.421722 347.500793,215.878754 393.996246,262.431946 
	C395.139771,263.576843 396.705475,264.432037 397.183502,266.961884 
	C391.965790,267.825256 386.703674,266.883331 381.586060,267.476013 
	C375.566803,268.173096 371.824188,265.254578 367.844452,261.251617 
	C331.440155,224.635315 294.835449,188.218353 258.362122,151.670456 
	C255.800217,149.103317 253.096756,148.017471 249.512634,148.077545 
	C240.186676,148.233841 230.855881,148.078186 221.527878,148.153870 
	C218.883102,148.175339 216.760834,147.520569 214.818466,145.575195 
	C180.334351,111.038025 145.798477,76.552544 111.288620,42.041054 
	C110.368607,41.120995 109.614670,40.034866 108.848145,39.104862 
	C109.636192,37.139023 111.171402,37.694130 112.379936,37.689850 
	C124.040642,37.648529 135.702332,37.742817 147.361862,37.619759 
	C150.311905,37.588619 152.393799,38.733997 154.363647,40.733810 
	C161.377060,47.853939 168.470398,54.895344 175.782745,62.217331 
z"/>
<path fill="#000000" opacity="1.000000" stroke="none" 
	d="
M302.118286,372.119995 
	C285.157990,389.107483 268.374878,405.771362 251.851547,422.688904 
	C248.638824,425.978302 245.343811,427.802063 240.890686,427.105377 
	C232.398819,425.776917 226.396667,429.090790 220.427963,435.271454 
	C198.792358,457.675354 176.512665,479.456360 154.586136,501.581573 
	C152.033569,504.157257 149.438141,505.328094 145.813889,505.270294 
	C135.155182,505.100250 124.491699,505.244934 113.830231,505.215210 
	C112.215469,505.210724 110.496353,505.618073 109.028801,504.538208 
	C108.304108,502.843414 109.632195,502.079803 110.528168,501.186096 
	C138.938095,472.847687 167.364075,444.525330 195.774734,416.187683 
	C201.785339,410.192535 207.857666,404.252380 213.673492,398.072266 
	C215.915375,395.690002 218.211578,394.561584 221.495682,394.618927 
	C230.488647,394.776031 239.493347,394.454437 248.479034,394.753723 
	C252.869934,394.899963 255.992889,393.427063 259.031891,390.377319 
	C295.714752,353.564850 332.538605,316.892731 369.169952,280.029266 
	C372.858063,276.317780 376.492828,274.265442 381.823120,274.716644 
	C386.864258,275.143372 391.969879,274.808319 397.047119,274.808319 
	C397.264709,275.345703 397.482300,275.883057 397.699890,276.420441 
	C365.928650,308.241943 334.157440,340.063446 302.118286,372.119995 
z"/>
<path fill="#000000" opacity="1.000000" stroke="none" 
	d="
M147.406769,120.593262 
	C165.434952,138.632416 183.259369,156.375931 200.941513,174.260117 
	C203.483856,176.831528 206.053375,178.103043 209.691101,177.982529 
	C216.346497,177.762039 223.015381,177.985794 229.676331,177.879639 
	C232.528351,177.834198 234.721878,178.718872 236.770981,180.774460 
	C262.053009,206.136276 287.402222,231.431137 312.723053,256.754272 
	C313.515106,257.546417 314.564362,258.215149 314.553253,259.638428 
	C313.374207,260.931610 311.782318,260.355774 310.376617,260.373932 
	C305.213989,260.440704 299.985199,259.868408 294.899475,260.495392 
	C283.317535,261.923218 273.623627,259.426331 266.735382,249.278885 
	C265.005096,246.729935 262.238159,246.257050 259.207733,246.296280 
	C249.382019,246.423553 239.553024,246.285797 229.726685,246.385910 
	C227.069550,246.412994 225.007462,245.772415 223.054520,243.813797 
	C191.304367,211.971405 159.517120,180.165802 127.641968,148.448654 
	C124.807838,145.628571 125.028984,143.870834 127.791313,141.175247 
	C135.851059,133.310272 135.519653,135.211609 127.682671,127.298958 
	C113.268852,112.745964 98.714874,98.331848 84.242477,83.836716 
	C83.095490,82.687927 81.569366,81.783493 81.204193,79.631134 
	C84.723785,77.782616 88.597778,79.260216 92.213470,78.663452 
	C101.846390,77.073547 108.714119,80.812675 115.176147,88.038277 
	C125.264168,99.318321 136.441559,109.624123 147.406769,120.593262 
M288.472504,248.722824 
	C269.481110,229.635056 250.350616,210.682312 231.600281,191.360657 
	C227.145248,186.769867 222.606644,186.989700 216.664062,188.019379 
	C218.140671,189.754013 219.116608,191.072815 220.263000,192.221481 
	C239.052109,211.047546 257.861145,229.853699 276.674469,248.655579 
	C277.377014,249.357697 278.099579,250.078690 278.929657,250.607422 
	C282.239563,252.715637 287.458771,251.980728 288.472504,248.722824 
z"/>
<path fill="#000000" opacity="1.000000" stroke="none" 
	d="
M179.371490,206.628296 
	C192.277359,219.532822 204.931839,232.188782 218.283752,245.542267 
	C213.160202,246.833786 209.204178,246.228500 205.312729,246.322372 
	C200.983536,246.426819 196.543488,245.730026 192.339371,246.461151 
	C182.648026,248.146515 177.886307,241.843689 172.312973,235.241135 
	C177.069626,233.095413 181.873932,235.724350 186.593216,233.569717 
	C182.209564,229.073959 177.992889,224.672531 173.692169,220.354828 
	C164.875458,211.503281 155.885010,202.820068 147.238373,193.806335 
	C144.100281,190.535034 140.846054,188.617050 136.312729,189.346298 
	C128.892151,190.540024 123.683884,187.432999 118.467903,182.143280 
	C86.066650,149.283981 53.322235,116.763123 20.714371,84.107323 
	C19.470530,82.861649 17.706440,81.925667 17.559280,79.763901 
	C18.765024,78.093262 20.579729,78.712372 22.116989,78.707390 
	C37.444683,78.657639 52.773045,78.745987 68.100151,78.640564 
	C71.182793,78.619362 73.438835,79.630310 75.585892,81.792831 
	C91.782173,98.105881 107.993454,114.405579 124.373627,130.533157 
	C127.571487,133.681717 127.306244,135.620163 124.158783,138.557404 
	C117.579056,144.697662 117.682297,144.901932 124.001976,151.238846 
	C142.353409,169.640381 160.744553,188.002289 179.371490,206.628296 
z"/>
<path fill="#000000" opacity="1.000000" stroke="none" 
	d="
M33.005196,464.147583 
	C27.472647,463.849335 22.330330,464.865967 16.958790,463.329712 
	C18.510603,460.001495 20.992859,458.215240 23.048407,456.155090 
	C56.339893,422.789093 89.717865,389.509369 122.968559,356.102875 
	C125.804184,353.253967 128.992401,352.538086 132.502716,353.039124 
	C140.028183,354.113281 145.245804,351.032562 150.331161,345.603699 
	C161.024521,334.188019 172.402740,323.414337 183.477951,312.355194 
	C184.396301,311.438141 185.497559,310.589966 185.782013,308.387451 
	C181.527115,308.387451 177.345306,308.387451 172.919388,308.387451 
	C175.529526,301.189880 183.002396,295.700714 189.473587,295.693329 
	C196.969360,295.684753 204.465424,295.654144 211.960693,295.714752 
	C213.720139,295.728973 215.611450,295.215607 217.192444,296.433929 
	C217.712021,297.936096 216.625565,298.644592 215.834198,299.434509 
	C184.841446,330.370270 153.835876,361.293243 122.841881,392.227814 
	C117.386337,397.672882 117.440491,397.659332 122.675545,402.978851 
	C128.448334,408.844849 128.571335,407.784637 122.738083,413.573486 
	C106.786430,429.403717 90.916183,445.316528 75.099930,461.282074 
	C72.894386,463.508423 70.464653,464.206177 67.484299,464.186615 
	C56.157837,464.112335 44.830647,464.150482 33.005196,464.147583 
z"/>
<path fill="#000000" opacity="1.000000" stroke="none" 
	d="
M161.268173,288.311401 
	C167.064972,282.842316 172.636002,277.646454 178.493317,272.183594 
	C171.625595,265.127533 165.795868,259.137970 159.952744,253.134583 
	C161.873428,251.145889 163.632141,251.704895 165.196442,251.702103 
	C196.009094,251.647156 226.821976,251.676575 257.634369,251.568283 
	C261.049316,251.556274 263.947083,252.216324 265.934357,255.072617 
	C272.285675,264.201263 280.958344,266.920197 291.807129,265.813049 
	C299.884277,264.988800 308.113007,265.647736 316.274231,265.652100 
	C317.439789,265.652740 318.623016,265.565033 319.767578,265.729736 
	C323.053589,266.202576 325.890900,268.457733 326.060730,271.231293 
	C326.248718,274.301880 323.115021,276.430206 319.919708,276.620880 
	C314.285889,276.957062 308.623657,276.824280 302.973175,276.872498 
	C295.645203,276.935028 288.313965,277.129852 280.990387,276.973877 
	C277.374420,276.896912 274.374969,277.740875 272.255280,280.702515 
	C266.144470,289.240631 257.950562,291.387146 247.604141,291.158234 
	C220.139633,290.550720 192.650101,291.105560 165.170776,291.055328 
	C163.700012,291.052643 160.346191,292.778625 161.268173,288.311401 
z"/>
<path fill="#000000" opacity="1.000000" stroke="none" 
	d="
M321.343384,377.340515 
	C328.168427,367.973022 337.042511,364.604370 348.023895,366.609161 
	C358.617493,368.543182 366.396851,364.326172 373.067932,356.254089 
	C377.924774,350.377289 384.016968,345.537689 389.113922,339.838226 
	C393.557373,334.869507 398.641876,335.714508 405.519470,336.597839 
	C401.198303,341.274200 397.707642,345.051849 394.059814,348.999542 
	C397.124420,350.487122 399.089844,349.230438 400.926483,347.380676 
	C403.976196,344.309235 407.058807,341.270386 410.101379,338.191864 
	C412.477478,335.787659 415.091217,335.387238 418.486237,336.873291 
	C416.098816,341.080048 412.556091,343.641418 409.587738,346.632904 
	C383.791016,372.630493 357.876984,398.511597 332.012695,424.442200 
	C330.457306,426.001617 328.954712,427.401825 326.503784,427.396942 
	C309.523132,427.363068 292.542358,427.399750 275.561615,427.386688 
	C274.932465,427.386200 274.303528,427.106140 272.275635,426.623322 
	C288.955017,409.868866 305.025452,393.726074 321.343384,377.340515 
z"/>
<path fill="#000000" opacity="1.000000" stroke="none" 
	d="
M299.000000,114.835892 
	C307.829468,114.846291 316.160065,114.936668 324.487854,114.823517 
	C327.392731,114.784042 329.517975,115.826385 331.532593,117.843803 
	C359.899933,146.250412 388.317627,174.606735 416.710205,202.988159 
	C417.389313,203.666946 417.919647,204.494553 418.798157,205.605270 
	C415.245789,207.039047 412.431183,206.665985 409.940460,204.222443 
	C407.087097,201.423126 404.173065,198.676147 401.468140,195.738190 
	C399.378662,193.468704 397.017944,192.522964 392.941467,194.208588 
	C397.134766,197.395844 401.328064,200.583099 406.046631,204.169617 
	C399.053040,207.635239 393.246094,206.820358 389.405121,202.989792 
	C381.502655,195.108780 373.552094,187.274277 365.761505,179.283951 
	C363.599518,177.066559 361.295746,176.173355 358.246796,176.234802 
	C351.086395,176.379089 343.919861,176.202591 336.758209,176.312729 
	C334.084839,176.353851 331.982605,175.625809 330.061829,173.699570 
	C311.713959,155.299561 293.308044,136.957428 274.926544,118.590950 
	C274.232849,117.897827 273.417755,117.240639 273.557587,114.835861 
	C281.788269,114.835861 290.144135,114.835861 299.000000,114.835892 
z"/>
<path fill="#000000" opacity="1.000000" stroke="none" 
	d="
M312.997253,82.656265 
	C324.875793,80.687439 333.838440,84.439499 340.596466,93.824921 
	C342.684509,96.724792 346.104797,98.562881 347.672791,101.993752 
	C346.125305,103.844734 344.164612,103.206337 342.456543,103.208542 
	C308.494629,103.252449 274.532654,103.229263 240.570770,103.268379 
	C237.809448,103.271561 235.410370,102.901085 233.311584,100.785156 
	C219.595535,86.956940 205.794601,73.212944 192.044312,59.418579 
	C191.365616,58.737720 190.900742,57.843719 190.375244,57.103809 
	C191.337570,55.085045 193.041702,55.720074 194.405624,55.706230 
	C201.563553,55.633564 208.725708,55.790092 215.879822,55.608143 
	C219.125412,55.525597 221.548141,56.478920 223.802414,58.858494 
	C228.608704,63.931953 233.750519,68.686638 238.587219,73.732613 
	C240.588425,75.820412 242.702774,76.729256 245.609451,76.684029 
	C254.596954,76.544205 263.588959,76.711868 272.577545,76.609726 
	C275.249695,76.579353 277.550751,77.072960 279.214386,79.250732 
	C281.339050,82.032043 284.094879,82.779022 287.527374,82.698792 
	C295.846680,82.504349 304.173889,82.648506 312.997253,82.656265 
z"/>
<path fill="#000000" opacity="1.000000" stroke="none" 
	d="
M277.531372,465.051941 
	C271.514038,467.231903 265.510834,466.767548 259.906189,466.023743 
	C246.404114,464.231812 235.921768,468.370331 228.151886,479.453552 
	C223.459427,486.147003 217.084763,488.118530 209.135208,487.370331 
	C202.972137,486.790283 196.710800,487.254517 190.692078,487.254517 
	C190.166946,484.328583 191.717087,483.587860 192.711227,482.589294 
	C205.755646,469.487122 218.872482,456.456635 231.851746,443.290405 
	C234.367752,440.738190 236.984039,439.588043 240.629211,439.600464 
	C274.443665,439.715637 308.258636,439.657532 342.073425,439.688812 
	C343.833557,439.690430 345.717010,439.218262 347.401001,440.426025 
	C347.613068,442.682770 345.719543,443.524780 344.504517,444.750977 
	C340.521606,448.770447 336.319641,452.585754 332.517212,456.766327 
	C330.165802,459.351593 327.605225,460.314819 324.184479,460.273590 
	C312.525879,460.133057 300.858643,460.429871 289.207123,460.109100 
	C284.478882,459.978912 280.719269,460.999786 277.531372,465.051941 
z"/>
<path fill="#000000" opacity="1.000000" stroke="none" 
	d="
M401.074341,210.672119 
	C409.198578,210.981140 417.644684,208.441040 424.258453,211.648132 
	C430.651520,214.748215 435.181610,221.666473 440.572418,226.863602 
	C446.058746,232.152771 451.596710,237.388321 456.904327,242.449310 
	C455.355469,245.406372 453.488068,244.859695 451.973602,244.861130 
	C435.993958,244.876373 420.014252,244.810211 404.034546,244.769714 
	C402.099030,244.764801 400.510071,244.041107 399.137421,242.666092 
	C379.254852,222.749573 359.356293,202.848984 339.478271,182.927933 
	C339.155640,182.604599 339.041779,182.072983 338.695221,181.360489 
	C342.236298,179.066833 346.137512,180.580383 349.744843,180.039230 
	C357.495056,178.876617 363.397034,181.436493 368.499725,187.558609 
	C373.489899,193.545746 379.754944,198.457413 384.903748,204.329239 
	C389.233612,209.267059 394.080200,211.710190 401.074341,210.672119 
z"/>
<path fill="#000000" opacity="1.000000" stroke="none" 
	d="
M346.977295,351.981995 
	C363.955902,335.031586 380.719604,318.373230 397.351257,301.584045 
	C400.003815,298.906342 402.731598,297.650696 406.556152,297.696289 
	C421.371155,297.873016 436.189667,297.742462 451.006683,297.789886 
	C452.750549,297.795441 454.674561,297.237762 456.165833,298.646729 
	C456.689148,300.213226 455.456390,300.804993 454.685547,301.574554 
	C445.733124,310.511932 436.649719,319.321991 427.861176,328.417206 
	C425.171692,331.200500 422.355316,332.305756 418.612244,332.223602 
	C411.290649,332.062897 403.955536,332.372742 396.640991,332.094208 
	C392.790375,331.947510 390.016724,333.252350 387.405121,335.926941 
	C379.729370,343.787811 371.846985,351.446808 364.164459,359.301208 
	C362.152008,361.358673 360.036713,362.370026 357.137634,362.302307 
	C351.064972,362.160461 344.986633,362.259277 337.929230,362.259277 
	C340.602020,357.568756 344.014740,355.200012 346.977295,351.981995 
z"/>
<path fill="#000000" opacity="1.000000" stroke="none" 
	d="
M482.401489,285.483673 
	C479.360321,289.650024 475.572296,290.561615 470.867615,290.526215 
	C455.231232,290.408539 439.591553,290.746582 423.952942,290.885010 
	C420.845673,290.912506 417.727692,290.894806 413.960754,289.600830 
	C420.282715,283.656006 426.146271,278.142212 432.454224,272.210541 
	C425.651855,265.224854 419.854523,259.271301 414.070374,253.331268 
	C416.018524,251.255920 417.782684,251.766693 419.356018,251.764084 
	C437.004883,251.734802 454.654175,251.827057 472.302399,251.721878 
	C475.728760,251.701477 478.357300,252.695679 480.709412,255.174957 
	C484.948029,259.642670 489.279877,264.033356 493.767639,268.248779 
	C496.198029,270.531708 496.023071,272.155090 493.658356,274.330536 
	C489.862946,277.822144 486.312042,281.579468 482.401489,285.483673 
z"/>
<path fill="#000000" opacity="1.000000" stroke="none" 
	d="
M147.234467,322.230896 
	C153.665741,312.361450 162.850784,312.797821 172.373459,314.198334 
	C172.919647,316.169586 171.613129,316.900085 170.723999,317.795288 
	C161.708328,326.872467 152.668472,335.925629 143.653366,345.003387 
	C142.098602,346.568939 140.472748,348.053040 138.136597,348.044800 
	C128.336548,348.010193 118.536606,347.913757 108.737236,347.791534 
	C108.142464,347.784149 107.552933,347.357849 106.108025,346.793060 
	C112.059479,341.237366 115.403618,332.923187 125.301903,334.678253 
	C133.056290,336.053192 138.239075,332.268036 142.769272,326.720734 
	C144.023636,325.184753 145.572479,323.889282 147.234467,322.230896 
z"/>
<path fill="#000000" opacity="1.000000" stroke="none" 
	d="
M123.264908,208.214600 
	C118.556892,208.912781 115.985840,206.228760 113.516434,203.487045 
	C111.248322,200.968857 108.170036,199.116531 106.767563,195.873657 
	C108.080276,194.211060 109.688683,194.763000 111.086945,194.750610 
	C117.568054,194.693130 124.089943,195.181656 130.520905,194.612350 
	C137.596359,193.986023 142.755814,196.212738 147.515366,201.505386 
	C154.617661,209.403183 162.439865,216.653275 169.946579,224.188080 
	C171.078201,225.323914 172.503021,226.285309 172.799301,228.853165 
	C164.949585,228.706451 156.931122,232.032822 150.839066,224.014832 
	C148.649155,221.132584 145.333191,219.098251 143.185257,216.193298 
	C138.226624,209.487045 131.820221,206.944809 123.264908,208.214600 
z"/>
<path fill="#000000" opacity="1.000000" stroke="none" 
	d="
M228.847870,486.275909 
	C232.342941,480.316223 237.500183,476.123688 242.368286,471.676392 
	C243.122406,470.987396 244.525162,470.747040 245.629669,470.742798 
	C258.609985,470.692841 271.590668,470.720184 284.571106,470.764038 
	C285.157440,470.766022 285.742554,471.118958 286.827026,471.469818 
	C281.741028,476.718384 277.003418,481.686584 272.137634,486.525848 
	C271.547852,487.112457 270.266968,487.188171 269.305939,487.189636 
	C256.326050,487.209076 243.346054,487.178925 230.366211,487.128784 
	C229.909378,487.127014 229.453812,486.791077 228.847870,486.275909 
z"/>
<path fill="#000000" opacity="1.000000" stroke="none" 
	d="
M256.995361,55.665112 
	C268.200012,53.761368 276.614319,57.313686 282.875946,66.192863 
	C283.994537,67.779083 285.911469,68.767235 286.600006,70.657318 
	C285.404602,72.719742 283.542603,72.036781 282.008392,72.045197 
	C270.843262,72.106476 259.676514,71.981468 248.512802,72.120422 
	C244.722122,72.167610 241.918228,70.919022 239.293915,68.155205 
	C235.778717,64.453163 231.791000,61.199806 228.006165,57.753803 
	C228.329361,57.057648 228.652557,56.361488 228.975769,55.665333 
	C238.149384,55.665333 247.322998,55.665333 256.995361,55.665112 
z"/>
</svg>