{
    "asset": {
        "generator": "SOLIDWORKSGLTF",
        "version": "2.0"
    },
    "scene": 0,
    "scenes": [
        {
            "name": "Default",
            "nodes": [
                0,
                1
            ]
        }
    ],
    "nodes": [
        {
            "matrix": [
                -0.9870977256659247,
                0.1587144542460518,
                0.02116133262668113,
                0.0,
                0.1154892640806687,
                0.6141795461457339,
                0.7806700423215469,
                0.0,
                0.11090676204481253,
                0.7730415300031417,
                -0.6245850486708254,
                0.0,
                0.7257973858362592,
                1.2440473439011672,
                1.059165334220176,
                1.0
            ],
            "camera": 0,
            "name": "current camera"
        },
        {
            "children": [
                2,
                3
            ],
            "name": "Assem1"
        },
        {
            "translation": [
                0.6773561239242554,
                0.8744024038314819,
                1.3319683074951172
            ],
            "mesh": 0,
            "name": "Masu2 - Copy (2)-1"
        },
        {
            "rotation": [
                -0.7071068286895752,
                -1.2152419744565624e-17,
                0.0,
                0.7071068286895752
            ],
            "translation": [
                0.6773561239242554,
                0.9154024124145508,
                1.3369683027267456
            ],
            "mesh": 1,
            "name": "mirror-1"
        }
    ],
    "cameras": [
        {
            "type": "orthographic",
            "orthographic": {
                "xmag": 0.11096406587947803,
                "ymag": 0.08574495999777848,
                "zfar": 0.5920035162753194,
                "znear": 0.35916022133213227
            }
        }
    ],
    "meshes": [
        {
            "primitives": [
                {
                    "attributes": {
                        "POSITION": 1,
                        "NORMAL": 2,
                        "TEXCOORD_0": 3
                    },
                    "indices": 0,
                    "material": 0,
                    "mode": 4
                }
            ]
        },
        {
            "primitives": [
                {
                    "attributes": {
                        "POSITION": 5,
                        "NORMAL": 6
                    },
                    "indices": 4,
                    "material": 1,
                    "mode": 4
                }
            ]
        }
    ],
    "accessors": [
        {
            "bufferView": 0,
            "byteOffset": 0,
            "componentType": 5125,
            "count": 8184,
            "type": "SCALAR",
            "min": [
                0
            ],
            "max": [
                4365
            ]
        },
        {
            "bufferView": 1,
            "byteOffset": 0,
            "componentType": 5126,
            "count": 4366,
            "type": "VEC3",
            "min": [
                -0.05000000074505806,
                -4.336808689942018e-19,
                -0.05000000074505806
            ],
            "max": [
                0.05000000074505806,
                0.06400000303983688,
                0.05000000074505806
            ]
        },
        {
            "bufferView": 2,
            "byteOffset": 0,
            "componentType": 5126,
            "count": 4366,
            "type": "VEC3",
            "min": [
                -1.0,
                -1.0,
                -1.0
            ],
            "max": [
                1.0,
                1.0,
                1.0
            ]
        },
        {
            "bufferView": 3,
            "byteOffset": 0,
            "componentType": 5126,
            "count": 4366,
            "type": "VEC2",
            "min": [
                -0.061957258731126785,
                -0.005733286030590534
            ],
            "max": [
                1.0619572401046753,
                1.0057332515716553
            ]
        },
        {
            "bufferView": 4,
            "byteOffset": 0,
            "componentType": 5125,
            "count": 36,
            "type": "SCALAR",
            "min": [
                0
            ],
            "max": [
                23
            ]
        },
        {
            "bufferView": 5,
            "byteOffset": 0,
            "componentType": 5126,
            "count": 24,
            "type": "VEC3",
            "min": [
                -0.042500000447034836,
                -0.042500000447034836,
                0.0
            ],
            "max": [
                0.042500000447034836,
                0.042500000447034836,
                0.003000000026077032
            ]
        },
        {
            "bufferView": 6,
            "byteOffset": 0,
            "componentType": 5126,
            "count": 24,
            "type": "VEC3",
            "min": [
                -1.0,
                -1.0,
                -1.0
            ],
            "max": [
                1.0,
                1.0,
                1.0
            ]
        }
    ],
    "materials": [
        {
            "name": "polishedoak",
            "pbrMetallicRoughness": {
                "baseColorTexture": {
                    "index": 0
                },
                "baseColorFactor": [
                    1.0,
                    1.0,
                    1.0,
                    1.0
                ],
                "metallicFactor": 0.0,
                "roughnessFactor": 0.1899999998509884
            }
        },
        {
            "name": "chromiumplate",
            "pbrMetallicRoughness": {
                "baseColorFactor": [
                    0.38377467393767745,
                    0.4098257653065932,
                    0.42590531217895167,
                    1.0
                ],
                "metallicFactor": 1.0,
                "roughnessFactor": 0.0
            }
        }
    ],
    "textures": [
        {
            "sampler": 0,
            "source": 0
        }
    ],
    "images": [
        {
            "uri": "polished oak.jpg"
        }
    ],
    "samplers": [
        {
            "magFilter": 9729,
            "minFilter": 9729,
            "wrapS": 10497,
            "wrapT": 10497
        }
    ],
    "bufferViews": [
        {
            "buffer": 0,
            "byteOffset": 0,
            "byteLength": 32736,
            "target": 34963
        },
        {
            "buffer": 0,
            "byteOffset": 32736,
            "byteLength": 52392,
            "byteStride": 12,
            "target": 34962
        },
        {
            "buffer": 0,
            "byteOffset": 85128,
            "byteLength": 52392,
            "byteStride": 12,
            "target": 34962
        },
        {
            "buffer": 0,
            "byteOffset": 137520,
            "byteLength": 34928,
            "byteStride": 8,
            "target": 34962
        },
        {
            "buffer": 1,
            "byteOffset": 0,
            "byteLength": 144,
            "target": 34963
        },
        {
            "buffer": 1,
            "byteOffset": 144,
            "byteLength": 288,
            "byteStride": 12,
            "target": 34962
        },
        {
            "buffer": 1,
            "byteOffset": 432,
            "byteLength": 288,
            "byteStride": 12,
            "target": 34962
        }
    ],
    "buffers": [
        {
            "uri": "Masu2 - Copy (2)-1@Assem1.bin",
            "byteLength": 172448
        },
        {
            "uri": "mirror-1@Assem1.bin",
            "byteLength": 720
        }
    ]
}
